<svg width="32" height="26" viewBox="0 0 32 26" fill="none" xmlns="http://www.w3.org/2000/svg">
<path d="M31.115 13.555L25.355 11.305C25.15 11.225 24.725 11.12 24.245 11.305L18.485 13.555C17.95 13.765 17.6 14.255 17.6 14.8C17.6 20.38 21.035 24.24 24.245 25.495C24.725 25.68 25.145 25.575 25.355 25.495C27.92 24.495 32 21.025 32 14.8C32 14.255 31.65 13.765 31.115 13.555ZM24.8 23.12V13.665L29.575 15.53C29.295 19.885 26.53 22.3 24.8 23.12ZM11.2 12.8C14.735 12.8 17.6 9.935 17.6 6.4C17.6 2.865 14.735 0 11.2 0C7.665 0 4.8 2.865 4.8 6.4C4.8 9.935 7.665 12.8 11.2 12.8ZM16 14.8C16 14.675 16.04 14.56 16.055 14.44C15.93 14.435 15.81 14.4 15.68 14.4H14.845C13.735 14.91 12.5 15.2 11.2 15.2C9.9 15.2 8.67 14.91 7.555 14.4H6.72C3.01 14.4 0 17.41 0 21.12V23.2C0 24.525 1.075 25.6 2.4 25.6H20C20.34 25.6 20.665 25.525 20.96 25.4C18.26 23.255 16 19.565 16 14.8Z" fill="#E30A29"/>
</svg>
