<svg width="32" height="24" viewBox="0 0 32 24" fill="none" xmlns="http://www.w3.org/2000/svg">
<path fill-rule="evenodd" clip-rule="evenodd" d="M22.0485 6.15688C22.0485 9.5746 19.3238 12.3151 15.9259 12.3151C12.5279 12.3151 9.80327 9.5746 9.80327 6.15688C9.80327 2.73784 12.5279 0 15.9259 0C19.3238 0 22.0485 2.73784 22.0485 6.15688ZM15.9258 23.2726C10.935 23.2726 6.67356 22.4814 6.67356 19.3165C6.67356 16.1503 10.9077 15.3303 15.9258 15.3303C20.9167 15.3303 25.1781 16.1215 25.1781 19.2877C25.1781 22.4526 20.944 23.2726 15.9258 23.2726ZM24.6649 6.26819C24.6649 8.01046 24.1452 9.63351 23.2335 10.9828C23.1397 11.1216 23.2231 11.309 23.3885 11.3378C23.6164 11.3771 23.8522 11.3994 24.0918 11.4059C26.4817 11.4688 28.6268 9.92171 29.2194 7.59258C30.0972 4.13294 27.5197 1.02699 24.2377 1.02699C23.8808 1.02699 23.5396 1.06498 23.2075 1.1331C23.1619 1.14358 23.1137 1.16454 23.0876 1.20515C23.0564 1.25492 23.0798 1.32173 23.1111 1.36496C24.097 2.75484 24.6649 4.44995 24.6649 6.26819ZM28.6229 13.8365C30.2287 14.1522 31.285 14.7967 31.7226 15.7334C32.0925 16.5023 32.0925 17.3944 31.7226 18.162C31.0532 19.6148 28.8951 20.0812 28.0563 20.2017C27.8831 20.2279 27.7438 20.0772 27.762 19.903C28.1905 15.8774 24.7821 13.9688 23.9004 13.53C23.8626 13.5103 23.8548 13.4802 23.8587 13.4619C23.8613 13.4488 23.8769 13.4278 23.9056 13.4239C25.8136 13.3885 27.8649 13.6505 28.6229 13.8365ZM7.90855 11.4054C8.14819 11.3988 8.38263 11.3779 8.61185 11.3373C8.77725 11.3084 8.86061 11.1211 8.76684 10.9823C7.85515 9.63298 7.33549 8.00992 7.33549 6.26766C7.33549 4.44942 7.90334 2.75431 8.88926 1.36443C8.92052 1.3212 8.94266 1.25439 8.9127 1.20461C8.88666 1.16531 8.83717 1.14304 8.79288 1.13256C8.45947 1.06445 8.11824 1.02646 7.76138 1.02646C4.47932 1.02646 1.90186 4.1324 2.78099 7.59204C3.37358 9.92118 5.51864 11.4683 7.90855 11.4054ZM8.141 13.4611C8.14491 13.4807 8.13709 13.5096 8.10063 13.5305C7.2176 13.9694 3.80921 15.878 4.2377 19.9022C4.25593 20.0778 4.11788 20.2271 3.94466 20.2022C3.10591 20.0817 0.947824 19.6153 0.278389 18.1626C-0.0927963 17.3936 -0.0927963 16.5028 0.278389 15.7339C0.715996 14.7973 1.77094 14.1527 3.37681 13.8357C4.13611 13.651 6.18609 13.389 8.09542 13.4244C8.12407 13.4283 8.1384 13.4493 8.141 13.4611Z" fill="#009046"/>
</svg>
