<svg width="32" height="28" viewBox="0 0 32 28" fill="none" xmlns="http://www.w3.org/2000/svg">
<path d="M30 8H2C0.895437 8 0 7.10456 0 6V2C0 0.895437 0.895437 0 2 0H30C31.1046 0 32 0.895437 32 2V6C32 7.10456 31.1046 8 30 8ZM27 2.5C26.1716 2.5 25.5 3.17156 25.5 4C25.5 4.82844 26.1716 5.5 27 5.5C27.8284 5.5 28.5 4.82844 28.5 4C28.5 3.17156 27.8284 2.5 27 2.5ZM23 2.5C22.1716 2.5 21.5 3.17156 21.5 4C21.5 4.82844 22.1716 5.5 23 5.5C23.8284 5.5 24.5 4.82844 24.5 4C24.5 3.17156 23.8284 2.5 23 2.5ZM30 18H2C0.895437 18 0 17.1046 0 16V12C0 10.8954 0.895437 10 2 10H30C31.1046 10 32 10.8954 32 12V16C32 17.1046 31.1046 18 30 18ZM27 12.5C26.1716 12.5 25.5 13.1716 25.5 14C25.5 14.8284 26.1716 15.5 27 15.5C27.8284 15.5 28.5 14.8284 28.5 14C28.5 13.1716 27.8284 12.5 27 12.5ZM23 12.5C22.1716 12.5 21.5 13.1716 21.5 14C21.5 14.8284 22.1716 15.5 23 15.5C23.8284 15.5 24.5 14.8284 24.5 14C24.5 13.1716 23.8284 12.5 23 12.5ZM30 28H2C0.895437 28 0 27.1046 0 26V22C0 20.8954 0.895437 20 2 20H30C31.1046 20 32 20.8954 32 22V26C32 27.1046 31.1046 28 30 28ZM27 22.5C26.1716 22.5 25.5 23.1716 25.5 24C25.5 24.8284 26.1716 25.5 27 25.5C27.8284 25.5 28.5 24.8284 28.5 24C28.5 23.1716 27.8284 22.5 27 22.5ZM23 22.5C22.1716 22.5 21.5 23.1716 21.5 24C21.5 24.8284 22.1716 25.5 23 25.5C23.8284 25.5 24.5 24.8284 24.5 24C24.5 23.1716 23.8284 22.5 23 22.5Z" fill="#0071E0"/>
</svg>
