<svg width="32" height="32" viewBox="0 0 32 32" fill="none" xmlns="http://www.w3.org/2000/svg">
<path d="M0.775774 9.25158L15.3344 15.8559C15.7594 16.049 16.24 16.049 16.665 15.8559L31.2236 9.25158C32.258 8.78221 32.258 7.21911 31.2236 6.74974L16.6656 0.144839C16.4568 0.0493976 16.2299 0 16.0003 0C15.7707 0 15.5438 0.0493976 15.335 0.144839L0.775774 6.74912C-0.258591 7.21849 -0.258591 8.78221 0.775774 9.25158ZM31.2242 14.769L27.5936 13.1234L17.4912 17.7027C17.0187 17.9171 16.5169 18.0258 16 18.0258C15.4831 18.0258 14.9819 17.9171 14.5088 17.7027L4.40699 13.1234L0.775774 14.769C-0.258591 15.2377 -0.258591 16.8002 0.775774 17.269L15.3344 23.8682C15.7594 24.0607 16.24 24.0607 16.665 23.8682L31.2242 17.269C32.2586 16.8002 32.2586 15.2377 31.2242 14.769V14.769ZM31.2242 22.7564L27.6074 21.117L17.4912 25.7026C17.0187 25.917 16.5169 26.0257 16 26.0257C15.4831 26.0257 14.9819 25.917 14.5088 25.7026L4.39324 21.117L0.775774 22.7564C-0.258591 23.2251 -0.258591 24.7876 0.775774 25.2564L15.3344 31.8556C15.7594 32.0481 16.24 32.0481 16.665 31.8556L31.2242 25.2564C32.2586 24.7876 32.2586 23.2251 31.2242 22.7564V22.7564Z" fill="#FF6800"/>
</svg>
