<svg width="33" height="32" viewBox="0 0 33 32" fill="none" xmlns="http://www.w3.org/2000/svg">
<path d="M10.7954 17.9596C12.6754 17.9596 14.1821 19.4809 14.1821 21.3743V25.9196C14.1821 27.7996 12.6754 29.3329 10.7954 29.3329H6.28877C4.4221 29.3329 2.9021 27.7996 2.9021 25.9196V21.3743C2.9021 19.4809 4.4221 17.9596 6.28877 17.9596H10.7954ZM26.1822 17.9596C28.0489 17.9596 29.5689 19.4809 29.5689 21.3743V25.9196C29.5689 27.7996 28.0489 29.3329 26.1822 29.3329H21.6756C19.7956 29.3329 18.2889 27.7996 18.2889 25.9196V21.3743C18.2889 19.4809 19.7956 17.9596 21.6756 17.9596H26.1822ZM10.7954 2.66666C12.6754 2.66666 14.1821 4.19999 14.1821 6.08132V10.6267C14.1821 12.52 12.6754 14.04 10.7954 14.04H6.28877C4.4221 14.04 2.9021 12.52 2.9021 10.6267V6.08132C2.9021 4.19999 4.4221 2.66666 6.28877 2.66666H10.7954ZM26.1822 2.66666C28.0489 2.66666 29.5689 4.19999 29.5689 6.08132V10.6267C29.5689 12.52 28.0489 14.04 26.1822 14.04H21.6756C19.7956 14.04 18.2889 12.52 18.2889 10.6267V6.08132C18.2889 4.19999 19.7956 2.66666 21.6756 2.66666H26.1822Z" fill="#A92D5F"/>
</svg>
