<svg width="33" height="32" viewBox="0 0 33 32" fill="none" xmlns="http://www.w3.org/2000/svg">
<path fill-rule="evenodd" clip-rule="evenodd" d="M8.54154 17.3333C13.9669 17.3333 14.2082 19.1733 14.2082 23C14.2082 24.9173 14.2082 26.2813 13.4029 27.28C12.4762 28.4307 10.7895 28.6667 8.54154 28.6667C6.29354 28.6667 4.60688 28.4307 3.68021 27.28C2.87488 26.2813 2.87488 24.9187 2.87488 23.0333L3.87488 23H2.87488C2.87488 19.1733 3.11621 17.3333 8.54154 17.3333ZM23.2082 17.3333C28.6335 17.3333 28.8749 19.1733 28.8749 23C28.8749 24.9173 28.8749 26.2813 28.0695 27.28C27.1429 28.4307 25.4562 28.6667 23.2082 28.6667C20.9602 28.6667 19.2735 28.4307 18.3469 27.28C17.5415 26.2813 17.5415 24.9187 17.5415 23.0333L18.5415 23H17.5415C17.5415 19.1733 17.7829 17.3333 23.2082 17.3333ZM8.81643 19.3339L8.54154 19.3333C5.06291 19.3333 4.88452 19.5829 4.87537 22.5027L4.87593 23.6402C4.88225 24.8015 4.9265 25.6404 5.23621 26.0267C5.58954 26.464 6.63888 26.6667 8.54154 26.6667C10.4442 26.6667 11.4935 26.4627 11.8469 26.0253C12.2082 25.576 12.2082 24.5093 12.2082 23.032C12.2082 19.6984 12.2082 19.3496 8.81643 19.3339ZM23.4831 19.3339L23.2082 19.3333C19.7296 19.3333 19.5512 19.5829 19.542 22.5027L19.5426 23.6402C19.5489 24.8015 19.5932 25.6404 19.9029 26.0267C20.2562 26.464 21.3055 26.6667 23.2082 26.6667C25.1109 26.6667 26.1602 26.4627 26.5135 26.0253C26.8749 25.576 26.8749 24.5093 26.8749 23.032C26.8749 19.6984 26.8749 19.3496 23.4831 19.3339ZM8.54154 2.66666C13.9669 2.66666 14.2082 4.50666 14.2082 8.33332C14.2082 10.2507 14.2082 11.6147 13.4029 12.6133C12.4762 13.764 10.7895 14 8.54154 14C6.29354 14 4.60688 13.764 3.68021 12.6133C2.87488 11.6147 2.87488 10.252 2.87488 8.36666L3.87488 8.33332H2.87488C2.87488 4.50666 3.11621 2.66666 8.54154 2.66666ZM23.2082 2.66666C28.6335 2.66666 28.8749 4.50666 28.8749 8.33332C28.8749 10.2507 28.8749 11.6147 28.0695 12.6133C27.1429 13.764 25.4562 14 23.2082 14C20.9602 14 19.2735 13.764 18.3469 12.6133C17.5415 11.6147 17.5415 10.252 17.5415 8.36666L18.5415 8.33332H17.5415C17.5415 4.50666 17.7829 2.66666 23.2082 2.66666ZM8.81643 4.66725L8.54154 4.66666C5.06291 4.66666 4.88452 4.91627 4.87537 7.83606L4.87593 8.97356C4.88225 10.1348 4.9265 10.9737 5.23621 11.36C5.58954 11.7973 6.63888 12 8.54154 12C10.4442 12 11.4935 11.796 11.8469 11.3587C12.2082 10.9093 12.2082 9.84266 12.2082 8.36532C12.2082 5.03172 12.2082 4.68295 8.81643 4.66725ZM23.4831 4.66725L23.2082 4.66666C19.7296 4.66666 19.5512 4.91627 19.542 7.83606L19.5426 8.97356C19.5489 10.1348 19.5932 10.9737 19.9029 11.36C20.2562 11.7973 21.3055 12 23.2082 12C25.1109 12 26.1602 11.796 26.5135 11.3587C26.8749 10.9093 26.8749 9.84266 26.8749 8.36532C26.8749 5.03172 26.8749 4.68295 23.4831 4.66725Z" fill="#E2E2E2"/>
</svg>
