<svg width="33" height="32" viewBox="0 0 33 32" fill="none" xmlns="http://www.w3.org/2000/svg">
<path fill-rule="evenodd" clip-rule="evenodd" d="M18.4466 20.3884C20.0519 20.3884 21.3586 21.6857 21.3586 23.2804V27.3817C21.3586 27.7244 21.6332 27.9991 21.9852 28.0071H24.5266C26.5292 28.0071 28.1572 26.3991 28.1572 24.4231V12.7911C28.1479 12.1111 27.8239 11.4711 27.2679 11.0457L18.4772 4.03507C17.2972 3.1004 15.6466 3.1004 14.4626 4.03774L5.73191 11.0431C5.15458 11.4817 4.83058 12.1217 4.82391 12.8137V24.4231C4.82391 26.3991 6.45191 28.0071 8.45458 28.0071H11.0199C11.3812 28.0071 11.6746 27.7204 11.6746 27.3684C11.6746 27.2911 11.6839 27.2137 11.6999 27.1404V23.2804C11.6999 21.6951 12.9986 20.3991 14.5919 20.3884H18.4466ZM24.5266 30.0071H21.9612C20.4919 29.9724 19.3586 28.8191 19.3586 27.3817V23.2804C19.3586 22.7884 18.9492 22.3884 18.4466 22.3884H14.5986C14.1066 22.3911 13.6999 22.7924 13.6999 23.2804V27.3684C13.6999 27.4684 13.6866 27.5644 13.6586 27.6551C13.5146 28.9751 12.3866 30.0071 11.0199 30.0071H8.45458C5.34925 30.0071 2.82391 27.5017 2.82391 24.4231V12.8044C2.83725 11.4791 3.44791 10.2657 4.50258 9.46707L13.2159 2.47374C15.1346 0.953738 17.8079 0.953738 19.7226 2.47107L28.4986 9.47107C29.5292 10.2564 30.1399 11.4671 30.1572 12.7764V24.4231C30.1572 27.5017 27.6319 30.0071 24.5266 30.0071Z" fill="#E2E2E2"/>
</svg>
