<svg width="33" height="32" viewBox="0 0 33 32" fill="none" xmlns="http://www.w3.org/2000/svg">
<path d="M12.3304 27.6978V23.6208C12.3304 22.5801 13.1802 21.7364 14.2286 21.7364H18.0608C18.5643 21.7364 19.0471 21.9349 19.4031 22.2883C19.759 22.6417 19.959 23.121 19.959 23.6208V27.6978C19.9559 28.1305 20.1268 28.5465 20.4338 28.8536C20.7409 29.1606 21.1587 29.3333 21.5946 29.3333H24.2091C25.4302 29.3365 26.6023 28.8571 27.4669 28.0011C28.3315 27.145 28.8173 25.9826 28.8173 24.7704V13.1558C28.8173 12.1766 28.3801 11.2478 27.6235 10.6195L18.7294 3.56782C17.1822 2.33141 14.9655 2.37133 13.4645 3.66263L4.77336 10.6195C3.981 11.2293 3.50741 12.1608 3.48401 13.1558V24.7586C3.48401 27.2851 5.54718 29.3333 8.09224 29.3333H10.6471C11.5523 29.3333 12.288 28.6083 12.2946 27.7096L12.3304 27.6978Z" fill="#A92D5F"/>
</svg>
