<svg width="16" height="16" viewBox="0 0 16 16" fill="none" xmlns="http://www.w3.org/2000/svg">
<path d="M11.7006 4.04129C10.6922 3.09703 9.38348 2.57942 7.9951 2.58065C5.49645 2.58284 3.33935 4.29606 2.74377 6.67258C2.70042 6.84558 2.54629 6.96774 2.36794 6.96774H0.519452C0.277581 6.96774 0.0938387 6.74816 0.138581 6.51045C0.836548 2.804 4.09074 0 8 0C10.1435 0 12.09 0.843097 13.5263 2.21565L14.6784 1.06355C15.1661 0.575839 16 0.921258 16 1.611V5.93548C16 6.36306 15.6534 6.70968 15.2258 6.70968H10.9013C10.2116 6.70968 9.86616 5.87577 10.3539 5.38803L11.7006 4.04129ZM0.774194 9.29032H5.09868C5.78842 9.29032 6.13384 10.1242 5.64613 10.612L4.29935 11.9587C5.30781 12.903 6.61661 13.4206 8.00503 13.4194C10.5024 13.4171 12.6604 11.7051 13.2562 9.32748C13.2996 9.15448 13.4537 9.03232 13.6321 9.03232H15.4806C15.7225 9.03232 15.9062 9.2519 15.8615 9.48961C15.1635 13.196 11.9093 16 8 16C5.85652 16 3.90997 15.1569 2.47371 13.7844L1.32161 14.9365C0.833903 15.4242 0 15.0787 0 14.389V10.0645C0 9.63694 0.346613 9.29032 0.774194 9.29032Z" fill="#009046"/>
</svg>
