<svg width="33" height="32" viewBox="0 0 33 32" fill="none" xmlns="http://www.w3.org/2000/svg">
<path fill-rule="evenodd" clip-rule="evenodd" d="M16.116 19.2187L16.2666 19.2187L16.6034 19.2199C19.1775 19.2368 25.06 19.4969 25.06 23.484C25.06 27.445 19.3825 27.7033 16.6435 27.7202L15.6287 27.7202C13.0544 27.7032 7.17069 27.4435 7.17069 23.4613C7.17069 19.4954 13.0544 19.2367 15.6287 19.2199L15.9655 19.2187C16.0177 19.2187 16.0679 19.2187 16.116 19.2187ZM16.116 21.2187C12.948 21.2187 9.17069 21.608 9.17069 23.4613C9.17069 25.2727 12.7226 25.6962 15.8265 25.7202L16.116 25.7213C19.284 25.7213 23.06 25.3333 23.06 23.484C23.06 21.612 19.284 21.2187 16.116 21.2187ZM26.7208 18.6776C29.9515 19.1616 30.6302 20.6789 30.6302 21.8669C30.6302 22.5923 30.3448 23.9163 28.4382 24.6429C28.3208 24.6869 28.2008 24.7083 28.0822 24.7083C27.6795 24.7083 27.2995 24.4629 27.1475 24.0643C26.9502 23.5483 27.2102 22.9696 27.7262 22.7736C28.6302 22.4296 28.6302 22.0496 28.6302 21.8669C28.6302 21.2829 27.8875 20.8749 26.4235 20.6563C25.8782 20.5736 25.5008 20.0656 25.5822 19.5176C25.6635 18.9709 26.1702 18.6069 26.7208 18.6776ZM6.64856 19.5176C6.72989 20.0656 6.35256 20.5736 5.80722 20.6563C4.34322 20.8749 3.60056 21.2829 3.60056 21.8669C3.60056 22.0496 3.60056 22.4283 4.50589 22.7736C5.02189 22.9696 5.28189 23.5483 5.08456 24.0643C4.93256 24.4629 4.55256 24.7083 4.14989 24.7083C4.03122 24.7083 3.91122 24.6869 3.79389 24.6429C1.88589 23.9149 1.60056 22.5909 1.60056 21.8669C1.60056 20.6803 2.27922 19.1616 5.51122 18.6776C6.06189 18.6083 6.56589 18.9709 6.64856 19.5176ZM16.116 5.33334C19.476 5.33334 22.208 8.06668 22.208 11.4253C22.208 14.784 19.476 17.5173 16.116 17.5173H16.08C14.4534 17.512 12.9294 16.8747 11.788 15.7227C10.644 14.572 10.0187 13.044 10.0253 11.4213C10.0253 8.06668 12.7574 5.33334 16.116 5.33334ZM16.116 7.33334C13.86 7.33334 12.0253 9.16934 12.0253 11.4253C12.0214 12.5187 12.44 13.5413 13.2067 14.3133C13.9734 15.0853 14.9947 15.5133 16.0827 15.5173L16.116 16.5173V15.5173C18.372 15.5173 20.208 13.6827 20.208 11.4253C20.208 9.16934 18.372 7.33334 16.116 7.33334ZM24.368 6.63934C26.712 7.02468 28.4147 9.03001 28.4147 11.4073C28.4094 13.8007 26.6214 15.854 24.2547 16.186C24.208 16.1927 24.1614 16.1953 24.116 16.1953C23.6254 16.1953 23.1974 15.834 23.1267 15.334C23.0507 14.786 23.4307 14.2807 23.9787 14.2047C25.3654 14.01 26.412 12.8073 26.4147 11.4047C26.4147 10.014 25.4174 8.83801 24.0427 8.61268C23.4987 8.52334 23.1294 8.00868 23.2187 7.46334C23.3094 6.91801 23.82 6.55268 24.368 6.63934ZM9.01336 7.46334C9.10269 8.00868 8.73336 8.52334 8.18936 8.61268C6.81469 8.83801 5.81736 10.014 5.81736 11.4073C5.82002 12.8073 6.86669 14.0113 8.25202 14.2047C8.80002 14.2807 9.18002 14.786 9.10402 15.334C9.03336 15.834 8.60536 16.1953 8.11469 16.1953C8.06936 16.1953 8.02269 16.1927 7.97602 16.186C5.60936 15.854 3.82269 13.8007 3.81736 11.41C3.81736 9.03001 5.52002 7.02468 7.86402 6.63934C8.42536 6.55134 8.92269 6.92068 9.01336 7.46334Z" fill="#E2E2E2"/>
</svg>
