<svg width="33" height="32" viewBox="0 0 33 32" fill="none" xmlns="http://www.w3.org/2000/svg">
<path d="M16.4005 19.3862C20.9754 19.3862 24.8818 20.1115 24.8818 23.0138C24.8818 25.915 21.0005 26.6667 16.4005 26.6667C11.8256 26.6667 7.91927 25.9414 7.91927 23.0402C7.91927 20.1379 11.8005 19.3862 16.4005 19.3862ZM23.7152 17.6385C25.4643 17.6061 27.3446 17.8463 28.0394 18.0168C29.5115 18.3062 30.4797 18.897 30.8809 19.7555C31.2199 20.4604 31.2199 21.2782 30.8809 21.9818C30.2672 23.3135 28.289 23.741 27.5201 23.8515C27.3613 23.8755 27.2336 23.7374 27.2503 23.5777C27.6431 19.8876 24.5187 18.1381 23.7105 17.7358C23.6758 17.7178 23.6687 17.6901 23.6723 17.6733C23.6747 17.6613 23.689 17.6421 23.7152 17.6385ZM8.89326 17.636L9.22262 17.639C9.24888 17.6426 9.26202 17.6618 9.2644 17.6726C9.26798 17.6906 9.26082 17.717 9.22739 17.7363C8.41795 18.1385 5.29359 19.8881 5.68637 23.577C5.70309 23.7379 5.57654 23.8748 5.41775 23.852C4.6489 23.7415 2.67066 23.314 2.05701 21.9823C1.71676 21.2774 1.71676 20.4609 2.05701 19.756C2.45815 18.8974 3.42518 18.3066 4.89723 18.016C5.59325 17.8467 7.4724 17.6066 9.22262 17.639L8.89326 17.636ZM16.4005 5.33334C19.5153 5.33334 22.0129 7.84303 22.0129 10.9771C22.0129 14.1101 19.5153 16.6221 16.4005 16.6221C13.2857 16.6221 10.7881 14.1101 10.7881 10.9771C10.7881 7.84303 13.2857 5.33334 16.4005 5.33334ZM24.0197 6.27454C27.0282 6.27454 29.3909 9.12166 28.5862 12.293C28.043 14.428 26.0767 15.8462 23.886 15.7885C23.6663 15.7825 23.4502 15.7621 23.2413 15.7261C23.0897 15.6997 23.0133 15.528 23.0992 15.4007C23.9349 14.1639 24.4113 12.6761 24.4113 11.079C24.4113 9.41225 23.8907 7.8584 22.987 6.58435C22.9583 6.54472 22.9368 6.48348 22.9655 6.43785C22.9894 6.40062 23.0335 6.38141 23.0753 6.3718C23.3798 6.30936 23.6926 6.27454 24.0197 6.27454ZM8.91639 6.27442C9.24351 6.27442 9.5563 6.30924 9.86194 6.37168C9.90253 6.38129 9.94789 6.4017 9.97177 6.43773C9.99923 6.48336 9.97893 6.5446 9.95028 6.58423C9.04652 7.85828 8.52599 9.41213 8.52599 11.0789C8.52599 12.6759 9.00235 14.1637 9.83806 15.4006C9.92402 15.5279 9.84761 15.6996 9.69599 15.726C9.48587 15.7632 9.27097 15.7824 9.0513 15.7884C6.86055 15.8461 4.89424 14.4279 4.35103 12.2929C3.54517 9.12154 5.90784 6.27442 8.91639 6.27442Z" fill="#A92D5F"/>
</svg>
